<?xml version="1.0" standalone="no"?>
<!DOCTYPE svg PUBLIC "-//W3C//DTD SVG 20010904//EN"
 "http://www.w3.org/TR/2001/REC-SVG-20010904/DTD/svg10.dtd">
<svg version="1.0" xmlns="http://www.w3.org/2000/svg"
 width="48.000000pt" height="48.000000pt" viewBox="0 0 48.000000 48.000000"
 preserveAspectRatio="xMidYMid meet">
<metadata>
Created by potrace 1.16, written by Peter Selinger 2001-2019
</metadata>
<g transform="translate(0.000000,48.000000) scale(0.100000,-0.100000)"
fill="#000000" stroke="none">
<path d="M0 240 l0 -240 240 0 240 0 0 240 0 240 -240 0 -240 0 0 -240z m70
190 c0 -5 -4 -10 -10 -10 -5 0 -10 5 -10 10 0 6 5 10 10 10 6 0 10 -4 10 -10z
m40 0 c0 -5 -7 -10 -15 -10 -8 0 -15 5 -15 10 0 6 7 10 15 10 8 0 15 -4 15
-10z m30 0 c0 -5 -4 -10 -10 -10 -5 0 -10 5 -10 10 0 6 5 10 10 10 6 0 10 -4
10 -10z m280 0 c0 -6 -28 -10 -65 -10 -37 0 -65 4 -65 10 0 6 28 10 65 10 37
0 65 -4 65 -10z m-55 -101 c4 -5 1 -23 -5 -40 -12 -28 -15 -29 -81 -29 -39 0
-69 -4 -69 -10 0 -5 25 -10 55 -10 46 0 55 -3 55 -18 0 -23 -28 -62 -44 -62
-10 0 -12 -13 -8 -50 3 -33 1 -50 -7 -50 -6 0 -11 11 -11 25 0 20 -5 25 -27
26 -16 0 -37 4 -48 9 -17 7 -13 9 22 15 36 6 41 10 33 25 -11 21 -4 30 26 30
13 0 26 5 29 10 4 6 -22 10 -72 10 -43 0 -85 5 -93 10 -12 8 -9 10 12 10 42 0
60 10 47 26 -20 24 1 34 76 34 41 0 77 5 80 10 4 6 -43 10 -134 10 -81 0 -141
4 -141 9 0 13 43 17 182 19 73 1 119 -2 123 -9z"/>
</g>
</svg>
